<?xml version="1.0" standalone="no"?><svg xmlns="http://www.w3.org/2000/svg" viewBox="0 0 1440 320"><path fill="#ffc107" fill-opacity="1" d="M0,128L15,122.7C30,117,60,107,90,101.3C120,96,150,96,180,128C210,160,240,224,270,256C300,288,330,288,360,272C390,256,420,224,450,186.7C480,149,510,107,540,96C570,85,600,107,630,112C660,117,690,107,720,122.7C750,139,780,181,810,192C840,203,870,181,900,186.7C930,192,960,224,990,229.3C1020,235,1050,213,1080,197.3C1110,181,1140,171,1170,144C1200,117,1230,75,1260,80C1290,85,1320,139,1350,165.3C1380,192,1410,192,1425,192L1440,192L1440,320L1425,320C1410,320,1380,320,1350,320C1320,320,1290,320,1260,320C1230,320,1200,320,1170,320C1140,320,1110,320,1080,320C1050,320,1020,320,990,320C960,320,930,320,900,320C870,320,840,320,810,320C780,320,750,320,720,320C690,320,660,320,630,320C600,320,570,320,540,320C510,320,480,320,450,320C420,320,390,320,360,320C330,320,300,320,270,320C240,320,210,320,180,320C150,320,120,320,90,320C60,320,30,320,15,320L0,320Z"></path></svg>