<?xml version="1.0" standalone="no"?><svg xmlns="http://www.w3.org/2000/svg" viewBox="0 0 1440 320"><path fill="#ffc107" fill-opacity="1" d="M0,128L15,122.7C30,117,60,107,90,101.3C120,96,150,96,180,128C210,160,240,224,270,256C300,288,330,288,360,272C390,256,420,224,450,186.7C480,149,510,107,540,96C570,85,600,107,630,112C660,117,690,107,720,122.7C750,139,780,181,810,192C840,203,870,181,900,186.7C930,192,960,224,990,229.3C1020,235,1050,213,1080,197.3C1110,181,1140,171,1170,144C1200,117,1230,75,1260,80C1290,85,1320,139,1350,165.3C1380,192,1410,192,1425,192L1440,192L1440,0L1425,0C1410,0,1380,0,1350,0C1320,0,1290,0,1260,0C1230,0,1200,0,1170,0C1140,0,1110,0,1080,0C1050,0,1020,0,990,0C960,0,930,0,900,0C870,0,840,0,810,0C780,0,750,0,720,0C690,0,660,0,630,0C600,0,570,0,540,0C510,0,480,0,450,0C420,0,390,0,360,0C330,0,300,0,270,0C240,0,210,0,180,0C150,0,120,0,90,0C60,0,30,0,15,0L0,0Z"></path></svg>